<?xml version="1.0" encoding="utf-8"?>
<svg id="Layer_1" version="1.1" x="0px" y="0px" viewBox="0 0 400 400" style="enable-background:new 0 0 400 400;" xml:space="preserve" xmlns="http://www.w3.org/2000/svg">
<g>
  <path
    fill="#585858"
    d="M165.91,51.34c2.03-8.19,7.87-11.54,15.06-12.98c20.49-4.12,39.64,0.68,58.03,9.4c22.86,10.84,31.53,30.19,31.07,54.3,c-0.16,8.27-1.98,16.51-3.01,24.77c-0.25,1.96-0.38,3.93-0.58,5.98c11.13-0.33,14.44,2.62,13.83,13.58,c-0.48,8.61-1.7,17.27-3.58,25.68c-1.62,7.25-6.13,12.21-14.49,12.69c-1.72,0.1-4.46,2.55-4.75,4.25,c-1.95,11.26-8.55,20.01-14.93,28.86c-7.41,10.28-3.06,23.15,8.97,26.91c32.94,10.3,65.8,20.87,98.75,31.14,c5.23,1.63,8.6,4.74,9.74,9.77c3.85,16.89,7.47,33.84,11.02,50.8c0.94,4.51-1.34,7.51-5.78,8.35,c-44.65,8.39-88.98,18.6-134.63,20.81c-51.48,2.48-102.24-2.19-152.56-12.95c-12.89-2.76-25.87-5.07-38.82-7.57,c-6.74-1.3-8.64-3.66-7.26-10.47c3.12-15.46,6.51-30.87,9.84-46.28c1.53-7.07,5.71-11.18,12.85-13.37,c31.84-9.76,63.55-19.98,95.34-29.91c13.91-4.35,17.92-16.19,9.43-28.25c-6.09-8.64-12.39-17.15-14.22-28.07,c-0.28-1.67-3.15-4.04-4.91-4.13c-7.12-0.36-12.05-4.08-13.37-10.38c-2.22-10.59-3.72-21.46-4.18-32.26,c-0.31-7.14,3.64-9.57,10.98-9.13c3.51,0.21,2.96-2.15,2.65-4.19c-1.52-9.77-3.38-19.5-4.62-29.3,c-1.39-10.95-1.11-21.86,3.42-32.22C141.01,53.91,151.73,49.74,165.91,51.34z"
  />
</g>
</svg>
